<svg width="13" height="14" viewBox="0 0 13 14" fill="none" xmlns="http://www.w3.org/2000/svg">
<path d="M12.76 7.31006V12.3799C12.76 13.0799 12.19 13.6499 11.49 13.6499H2.2C1.5 13.6499 0.929993 13.0799 0.929993 12.3799V7.31006C0.929993 6.61006 1.5 6.04004 2.2 6.04004H2.83V4.14014C2.83 1.93014 4.63 0.129883 6.84 0.129883C9.05 0.129883 10.85 1.93014 10.85 4.14014V6.04004H11.48C12.19 6.04004 12.76 6.61006 12.76 7.31006ZM8.74001 4.14014C8.74001 3.09014 7.89 2.24023 6.84 2.24023C5.79 2.24023 4.94 3.09014 4.94 4.14014V6.04004H8.74001V4.14014Z" fill="#00A30C"/>
</svg>
