<svg width="137" height="21" viewBox="0 0 137 21" fill="none" xmlns="http://www.w3.org/2000/svg">
<path d="M20.1501 1.12012V20.0298H18.0001V4.81006L10.69 14.5601H10.4201L3.13007 4.81006V20.0098H0.980042V1.12012H2.9201L10.5601 11.3799L18.23 1.12012H20.1501Z" fill="white"/>
<path d="M61.97 10.5698C61.97 15.9498 57.7401 20.02 52.1201 20.02H44.83V1.1299H52.1201C57.7401 1.1199 61.97 5.18984 61.97 10.5698ZM59.82 10.5698C59.82 6.30984 56.6101 3.16994 52.1201 3.16994H47.0001V17.94H52.1201C56.6101 17.94 59.82 14.8298 59.82 10.5698Z" fill="white"/>
<path d="M69.2401 1.12012V20.0298H67.09V1.12012H69.2401Z" fill="white"/>
<path d="M93.5401 10.5698C93.5401 5.11982 97.3801 0.850098 103.26 0.850098C107.22 0.850098 110.25 2.89988 111.61 5.62988L109.77 6.68018C108.75 4.41018 106.33 2.8999 103.32 2.8999C98.65 2.8999 95.71 6.27982 95.71 10.5698C95.71 14.8298 98.7401 18.21 103.41 18.21C106.48 18.21 108.89 16.72 109.92 14.46L111.76 15.5098C110.4 18.2398 107.39 20.29 103.37 20.29C97.4601 20.29 93.5401 16.0198 93.5401 10.5698Z" fill="white"/>
<path d="M116.82 10.5698C116.82 5.18982 120.92 0.850098 126.78 0.850098C132.61 0.850098 136.72 5.19982 136.72 10.5698C136.72 15.9398 132.62 20.29 126.78 20.29C120.92 20.29 116.82 15.9498 116.82 10.5698ZM134.57 10.5698C134.57 6.24982 131.44 2.8999 126.8 2.8999C122.13 2.8999 119 6.23982 119 10.5698C119 14.8998 122.13 18.21 126.8 18.21C131.43 18.21 134.57 14.8898 134.57 10.5698Z" fill="white"/>
<path d="M82.2801 15.5601L76.9201 16.9102L82.7801 5.6001V1.12012L72.9901 20.02L82.7801 17.5601V15.4399L82.2801 15.5601Z" fill="white"/>
<path d="M82.7801 1.12012V5.6001L88.6401 16.9102L83.2801 15.5601L82.7801 15.4399V17.5601L92.58 20.02L82.7801 1.12012Z" fill="#F0D200"/>
<path d="M39.69 1.12012H25.23V3.22998H39.69V1.12012Z" fill="white"/>
<path d="M39.69 17.9102H25.23V20.02H39.69V17.9102Z" fill="white"/>
<path d="M35.32 9.52002H25.23V11.6299H35.32V9.52002Z" fill="white"/>
</svg>
