<svg width="114" height="20" viewBox="0 0 114 20" fill="none" xmlns="http://www.w3.org/2000/svg">
<path d="M11.18 1.14006L12.85 6.26994C12.99 6.68994 13.38 6.9799 13.83 6.9799H19.22C20.21 6.9799 20.63 8.24977 19.82 8.83977L15.46 12.0097C15.1 12.2697 14.95 12.7301 15.09 13.1601L16.76 18.29C17.07 19.24 15.98 20.0199 15.18 19.4399L10.82 16.2699C10.46 16.0099 9.96997 16.0099 9.60997 16.2699L5.24998 19.4399C4.44998 20.0199 3.35997 19.24 3.66997 18.29L5.34001 13.1601C5.48001 12.7401 5.32995 12.2697 4.96995 12.0097L0.609968 8.83977C-0.190032 8.25977 0.220005 6.9799 1.21 6.9799H6.59996C7.03996 6.9799 7.44 6.68994 7.58 6.26994L9.24998 1.14006C9.52998 0.200059 10.87 0.200059 11.18 1.14006Z" fill="#FFDE08"/>
<path d="M34.57 1.14006L36.24 6.26994C36.38 6.68994 36.77 6.9799 37.22 6.9799H42.61C43.6 6.9799 44.02 8.24977 43.21 8.83977L38.85 12.0097C38.49 12.2697 38.34 12.7301 38.48 13.1601L40.15 18.29C40.46 19.24 39.37 20.0199 38.57 19.4399L34.21 16.2699C33.85 16.0099 33.36 16.0099 33 16.2699L28.64 19.4399C27.84 20.0199 26.75 19.24 27.06 18.29L28.73 13.1601C28.87 12.7401 28.72 12.2697 28.36 12.0097L24 8.83977C23.2 8.25977 23.61 6.9799 24.6 6.9799H29.99C30.43 6.9799 30.83 6.68994 30.97 6.26994L32.64 1.14006C32.93 0.200059 34.27 0.200059 34.57 1.14006Z" fill="#FFDE08"/>
<path d="M57.98 1.14006L59.65 6.26994C59.79 6.68994 60.18 6.9799 60.63 6.9799H66.02C67.01 6.9799 67.43 8.24977 66.62 8.83977L62.26 12.0097C61.9 12.2697 61.75 12.7301 61.89 13.1601L63.56 18.29C63.87 19.24 62.78 20.0199 61.98 19.4399L57.62 16.2699C57.26 16.0099 56.77 16.0099 56.41 16.2699L52.05 19.4399C51.25 20.0199 50.16 19.24 50.47 18.29L52.14 13.1601C52.28 12.7401 52.13 12.2697 51.77 12.0097L47.41 8.83977C46.61 8.25977 47.02 6.9799 48.01 6.9799H53.4C53.84 6.9799 54.24 6.68994 54.38 6.26994L56.05 1.14006C56.33 0.200059 57.67 0.200059 57.98 1.14006Z" fill="#FFDE08"/>
<path d="M81.37 1.14006L83.04 6.26994C83.18 6.68994 83.57 6.9799 84.02 6.9799H89.41C90.4 6.9799 90.82 8.24977 90.01 8.83977L85.65 12.0097C85.29 12.2697 85.14 12.7301 85.28 13.1601L86.95 18.29C87.26 19.24 86.17 20.0199 85.37 19.4399L81.01 16.2699C80.65 16.0099 80.16 16.0099 79.8 16.2699L75.44 19.4399C74.64 20.0199 73.55 19.24 73.86 18.29L75.53 13.1601C75.67 12.7401 75.52 12.2697 75.16 12.0097L70.8 8.83977C70 8.25977 70.41 6.9799 71.4 6.9799H76.79C77.23 6.9799 77.63 6.68994 77.77 6.26994L79.44 1.14006C79.73 0.200059 81.07 0.200059 81.37 1.14006Z" fill="#FFDE08"/>
<path d="M104.77 1.00969L106.44 6.14006C106.58 6.56006 106.97 6.85002 107.42 6.85002H112.81C113.8 6.85002 114.22 8.11988 113.41 8.70988L109.05 11.8798C108.69 12.1398 108.54 12.5997 108.68 13.0297L110.35 18.1601C110.66 19.1101 109.57 19.89 108.77 19.31L104.41 16.1401C104.05 15.8801 103.56 15.8801 103.2 16.1401L98.84 19.31C98.04 19.89 96.95 19.1101 97.26 18.1601L98.93 13.0297C99.07 12.6097 98.92 12.1398 98.56 11.8798L94.2 8.70988C93.4 8.12988 93.81 6.85002 94.8 6.85002H100.19C100.63 6.85002 101.03 6.56006 101.17 6.14006L102.84 1.00969C103.13 0.0696875 104.47 0.0696875 104.77 1.00969Z" fill="#FFDE08"/>
</svg>
