<svg width="46" height="36" viewBox="0 0 46 36" fill="none" xmlns="http://www.w3.org/2000/svg">
<path d="M27.68 32.7998C25.81 31.0598 24.86 28.7398 24.86 25.8398C24.86 22.8598 25.74 20.5301 27.51 18.8301C29.27 17.1301 31.54 16.2798 34.35 16.2798C37.24 16.2798 39.55 17.2698 41.32 19.2598C41.72 17.6098 41.72 15.8598 41.32 14.0498C41 11.8998 39.95 9.78021 38.2 7.72021C36.44 5.65021 34.44 4.12012 32.19 3.12012L33.27 0.879883C37.59 2.94988 40.78 5.73977 42.82 9.25977C44.86 12.7898 45.87 16.61 45.87 20.75C45.87 22.66 45.65 24.56 45.21 26.46C44.78 28.37 44.12 29.9001 43.24 31.0601C42.44 32.4701 41.32 33.55 39.88 34.29C38.44 35.04 36.72 35.3999 34.72 35.3999C31.9 35.3999 29.57 34.5398 27.68 32.7998ZM2.96002 32.7998C1.07002 31.0598 0.140015 28.7398 0.140015 25.8398C0.140015 22.8598 1.01998 20.5301 2.78998 18.8301C4.53998 17.1301 6.82 16.2798 9.63 16.2798C12.51 16.2798 14.83 17.2698 16.59 19.2598C17 17.6098 17 15.8598 16.59 14.0498C16.27 11.8998 15.23 9.78021 13.47 7.72021C11.72 5.65021 9.70997 4.12012 7.46997 3.12012L8.54999 0.879883C12.87 2.94988 16.05 5.73977 18.09 9.25977C20.13 12.7898 21.15 16.61 21.15 20.75C21.15 22.66 20.93 24.56 20.49 26.46C20.05 28.37 19.39 29.9001 18.51 31.0601C17.72 32.4701 16.59 33.55 15.16 34.29C13.72 35.04 12 35.3999 10 35.3999C7.19 35.3999 4.84002 34.5398 2.96002 32.7998Z" fill="#00AEFF"/>
</svg>
